<?xml version="1.0" encoding="UTF-8"?>
<svg id="Capa_1" data-name="Capa 1" xmlns="http://www.w3.org/2000/svg" xmlns:xlink="http://www.w3.org/1999/xlink" viewBox="0 0 595.28 345.56">
  <defs>
    <style>
      .cls-1, .cls-2, .cls-3 {
        fill: none;
      }

      .cls-2 {
        stroke-miterlimit: 10;
        stroke-width: 4px;
      }

      .cls-2, .cls-3, .cls-4 {
        stroke: #e6007e;
      }

      .cls-5 {
        clip-path: url(#clippath-1);
      }

      .cls-3, .cls-4 {
        stroke-linecap: round;
        stroke-linejoin: round;
        stroke-width: 3px;
      }

      .cls-4 {
        fill: #fff;
      }

      .cls-6 {
        clip-path: url(#clippath);
      }
    </style>
    <clipPath id="clippath">
      <rect class="cls-1" x="222.26" y="4.42" width="309.91" height="121.31"/>
    </clipPath>
    <clipPath id="clippath-1">
      <rect class="cls-1" x="222.26" y="244.21" width="309.91" height="84.53"/>
    </clipPath>
  </defs>
  <g>
    <path class="cls-2" d="M100.59,199.18v16.19c0,13.64-7.45,20.46-22.35,20.46h-22.35v-102.27h22.35c14.42,0,21.63,6.82,21.63,20.45v14.49c0,7.67-3.36,12.78-9.97,15.34,7.09,2.42,10.69,7.53,10.69,15.34ZM68.87,178.73h9.37c5.77,0,8.65-3.41,8.65-10.23v-14.49c0-6.82-2.88-10.23-8.65-10.23h-9.37v34.94ZM87.61,199.18c0-6.82-3.12-10.23-9.37-10.23h-9.37v36.65h9.37c6.25,0,9.37-3.41,9.37-10.23v-16.19Z"/>
    <path class="cls-2" d="M113.08,133.56h38.21v10.23h-25.23v34.94h23.07v10.23h-23.07v36.65h25.95v10.23h-38.93v-102.27Z"/>
    <path class="cls-2" d="M197.67,211.97h-19.7l-3.6,23.86h-11.77l15.86-102.27h18.74l15.86,102.27h-11.77l-3.6-23.86ZM195.99,201.74l-8.17-52.98-8.17,52.98h16.34Z"/>
    <path class="cls-2" d="M261.11,143.79h-15.86v92.04h-12.98v-92.04h-15.86v-10.23h44.7v10.23Z"/>
    <path class="cls-2" d="M316.38,133.56v102.27h-12.98v-46.88h-18.74v46.88h-12.98v-102.27h12.98v45.17h18.74v-45.17h12.98Z"/>
    <path class="cls-2" d="M373.57,152.31v64.77c0,13.64-7.45,20.46-22.35,20.46s-22.35-6.82-22.35-20.46v-64.77c0-13.64,7.45-20.46,22.35-20.46s22.35,6.82,22.35,20.46ZM360.6,152.31c0-6.82-3.12-10.23-9.37-10.23s-9.37,3.41-9.37,10.23v64.77c0,6.82,3.12,10.23,9.37,10.23s9.37-3.41,9.37-10.23v-64.77Z"/>
    <path class="cls-2" d="M417.79,133.56h12.98v83.52c0,13.64-7.45,20.46-22.35,20.46s-22.35-6.82-22.35-20.46v-83.52h12.98v83.52c0,6.82,3.12,10.23,9.37,10.23s9.37-3.41,9.37-10.23v-83.52Z"/>
    <path class="cls-2" d="M487.96,203.45v13.64c0,13.64-7.45,20.46-22.35,20.46s-22.35-6.82-22.35-20.46v-13.64h12.98v13.64c0,6.82,3.12,10.23,9.37,10.23s9.37-3.41,9.37-10.23v-13.64c0-24.71-31-4.26-31-39.2v-11.93c0-13.64,7.21-20.46,21.63-20.46s21.63,6.82,21.63,20.46v11.93h-12.98v-11.93c0-6.82-2.88-10.23-8.65-10.23s-8.65,3.41-8.65,10.23v11.93c0,24.71,31,4.26,31,39.2Z"/>
    <path class="cls-2" d="M500.46,133.56h38.21v10.23h-25.23v34.94h23.07v10.23h-23.07v36.65h25.95v10.23h-38.93v-102.27Z"/>
  </g>
  <g class="cls-6">
    <g>
      <path class="cls-3" d="M300.27,372.14c.07,2.36,1.64,4.72,2.31,4.76s2.32-2.05,2.44-4.19l10.64-226.04-21.69.91,6.3,224.56Z"/>
      <path class="cls-4" d="M320.26,224.62c.06,2.39,1.98,5.06,2.75,4.63.67-.37,1.82-3.05,2.08-5.09l7.45-58.88,9.51,56.74c.33,1.94,1.92,3.72,2.6,3.51.57-.17,1.75-2.31,1.97-4.03l9.64-76.53-37.4,1.57,1.4,78.08Z"/>
      <path class="cls-3" d="M270.49,297.32c.16,3.57,1.55,6.33,2.46,6.38.72.04,2.32-2.64,2.45-5.16l7.73-150.51-19.47.82,6.84,148.47Z"/>
      <path class="cls-3" d="M381.84,364.95c.23,3.25,1.44,6.02,2.27,6.32.75.27,2.49-1.84,2.64-4.87l10.88-223.16-31.08,1.3,15.29,220.41Z"/>
      <path class="cls-3" d="M450.31,299.15c.22,4.74,1.74,6.59,3.23,5.85.82-.41,1.62-3.93,1.82-7.94l8.05-156.58-20.33.85,7.22,157.82Z"/>
      <path class="cls-3" d="M241.93,220.12c1.18,5.26,3.46,6.26,5.17,1.45l5.45-72.26-20.21.85,9.58,69.96Z"/>
      <path class="cls-4" d="M407.84,221.8c.1,3.38,1.47,6.17,2.42,6.03.69-.1,1.83-3.13,2.06-5.32l5.63-53.33,3.77,51.7c.18,2.49,1.87,5.51,2.75,5.62.73.1,2.34-2.12,2.53-4.65l6.02-80.11-27.58,1.16,2.4,78.89Z"/>
      <polygon class="cls-3" points="463.42 140.48 473.54 140.05 469.98 12.88 463.42 140.48"/>
      <polygon class="cls-3" points="433.02 141.75 443.09 141.33 439.29 58.29 433.02 141.75"/>
      <path class="cls-3" d="M473.54,140.05l6.55,234.21c.06,2.26,1.83,4.41,2.49,4.26.66-.14,2.14-2.31,2.27-4.61l12.99-234.89-24.31,1.02Z"/>
      <polygon class="cls-3" points="252.55 149.32 263.65 148.85 259.46 57.89 252.55 149.32"/>
      <polygon class="cls-3" points="397.63 143.23 405.44 142.91 402.45 44.37 397.63 143.23"/>
      <polygon class="cls-3" points="283.12 148.03 293.97 147.58 290.14 11.31 283.12 148.03"/>
      <polygon class="cls-3" points="315.65 146.67 318.86 146.54 317.98 97.29 315.65 146.67"/>
      <polygon class="cls-3" points="356.25 144.97 366.55 144.54 362.91 92.1 356.25 144.97"/>
    </g>
  </g>
  <g class="cls-5">
    <g id="_1Nhixv" data-name="1Nhixv">
      <path class="cls-3" d="M497.84,184.4l-12.99,137.5c-.13,1.34-1.6,2.61-2.27,2.7s-2.43-1.17-2.49-2.5l-10.11-211.54-14.61,166.35c-.21,2.35-1.01,4.41-1.82,4.65-1.49.44-3.01-.65-3.23-3.42l-11.03-140.99-12.29,95.75c-.19,1.48-1.79,2.78-2.53,2.72-.88-.07-2.57-1.84-2.75-3.29l-3.77,26.93-5.63-25.98c-.23,1.28-1.37,3.05-2.06,3.11-.95.08-2.32-1.55-2.42-3.53l-5.4-103.86-15.7,188.5c-.15,1.78-1.89,3.01-2.64,2.85-.83-.17-2.04-1.79-2.27-3.7l-18.93-159.71-16.29,75.74c-.22,1-1.4,2.26-1.97,2.36-.68.12-2.27-.92-2.6-2.06l-9.51,36.91-7.45-35.66c-.26,1.19-1.42,2.77-2.08,2.98-.78.25-2.69-1.31-2.75-2.71l-2.28-50.96-12.96,137.65c-.12,1.25-1.77,2.47-2.44,2.45s-2.24-1.41-2.31-2.78l-10.13-211.22-14.75,168.13c-.13,1.47-1.73,3.04-2.45,3.02-.9-.03-2.29-1.65-2.46-3.73l-11.03-140.16-12.36,95.82c-1.71,2.82-3.99,2.23-5.17-.85l-9.58-40.95"/>
    </g>
  </g>
</svg>